<svg width="50" height="50" viewBox="0 0 50 50" fill="none" xmlns="http://www.w3.org/2000/svg">
<rect x="1.5" y="1.5" width="47" height="47" rx="23.5" stroke="#1A6CCC" stroke-width="3"/>
<rect x="1.5" y="1.5" width="47" height="47" rx="23.5" stroke="url(#paint0_linear_17_291)" stroke-opacity="0.4" stroke-width="3"/>
<path d="M37.25 17.4645V17.3609L37.1768 17.2877L31.7123 11.8232L31.6391 11.75H31.5355H14.3224C13.6382 11.75 13.0359 12.0062 12.5256 12.5041C12.0118 13.0053 11.75 13.6158 11.75 14.3224V34.6776C11.75 35.3639 12.0135 35.9668 12.5234 36.4766C13.0332 36.9865 13.6361 37.25 14.3224 37.25H34.6776C35.3842 37.25 35.9947 36.9882 36.4959 36.4744C36.9938 35.9641 37.25 35.3618 37.25 34.6776V17.4645ZM15.8825 21.0164V21.2664H16.1325H28.3593H28.6093V21.0164V16.1325V15.8825H28.3593H16.1325H15.8825V16.1325V21.0164ZM34.4276 18.6268V34.4276H14.5724V18.5232V14.5724H30.3732L34.4276 18.6268ZM24.5 32.7077C25.5456 32.7077 26.4459 32.3339 27.187 31.5928C27.9282 30.8516 28.3019 29.9513 28.3019 28.9057C28.3019 27.8601 27.9282 26.9599 27.187 26.2187C26.4459 25.4776 25.5456 25.1038 24.5 25.1038C23.4557 25.1038 22.5559 25.4709 21.8144 26.2002C21.0707 26.9317 20.6981 27.839 20.6981 28.9057C20.6981 29.9513 21.0718 30.8516 21.813 31.5928C22.5541 32.3339 23.4544 32.7077 24.5 32.7077Z" fill="#1A6CCC"/>
<path d="M37.25 17.4645V17.3609L37.1768 17.2877L31.7123 11.8232L31.6391 11.75H31.5355H14.3224C13.6382 11.75 13.0359 12.0062 12.5256 12.5041C12.0118 13.0053 11.75 13.6158 11.75 14.3224V34.6776C11.75 35.3639 12.0135 35.9668 12.5234 36.4766C13.0332 36.9865 13.6361 37.25 14.3224 37.25H34.6776C35.3842 37.25 35.9947 36.9882 36.4959 36.4744C36.9938 35.9641 37.25 35.3618 37.25 34.6776V17.4645ZM15.8825 21.0164V21.2664H16.1325H28.3593H28.6093V21.0164V16.1325V15.8825H28.3593H16.1325H15.8825V16.1325V21.0164ZM34.4276 18.6268V34.4276H14.5724V18.5232V14.5724H30.3732L34.4276 18.6268ZM24.5 32.7077C25.5456 32.7077 26.4459 32.3339 27.187 31.5928C27.9282 30.8516 28.3019 29.9513 28.3019 28.9057C28.3019 27.8601 27.9282 26.9599 27.187 26.2187C26.4459 25.4776 25.5456 25.1038 24.5 25.1038C23.4557 25.1038 22.5559 25.4709 21.8144 26.2002C21.0707 26.9317 20.6981 27.839 20.6981 28.9057C20.6981 29.9513 21.0718 30.8516 21.813 31.5928C22.5541 32.3339 23.4544 32.7077 24.5 32.7077Z" fill="url(#paint1_linear_17_291)" fill-opacity="0.4"/>
<path d="M37.25 17.4645V17.3609L37.1768 17.2877L31.7123 11.8232L31.6391 11.75H31.5355H14.3224C13.6382 11.75 13.0359 12.0062 12.5256 12.5041C12.0118 13.0053 11.75 13.6158 11.75 14.3224V34.6776C11.75 35.3639 12.0135 35.9668 12.5234 36.4766C13.0332 36.9865 13.6361 37.25 14.3224 37.25H34.6776C35.3842 37.25 35.9947 36.9882 36.4959 36.4744C36.9938 35.9641 37.25 35.3618 37.25 34.6776V17.4645ZM15.8825 21.0164V21.2664H16.1325H28.3593H28.6093V21.0164V16.1325V15.8825H28.3593H16.1325H15.8825V16.1325V21.0164ZM34.4276 18.6268V34.4276H14.5724V18.5232V14.5724H30.3732L34.4276 18.6268ZM24.5 32.7077C25.5456 32.7077 26.4459 32.3339 27.187 31.5928C27.9282 30.8516 28.3019 29.9513 28.3019 28.9057C28.3019 27.8601 27.9282 26.9599 27.187 26.2187C26.4459 25.4776 25.5456 25.1038 24.5 25.1038C23.4557 25.1038 22.5559 25.4709 21.8144 26.2002C21.0707 26.9317 20.6981 27.839 20.6981 28.9057C20.6981 29.9513 21.0718 30.8516 21.813 31.5928C22.5541 32.3339 23.4544 32.7077 24.5 32.7077Z" stroke="#1A6CCC" stroke-width="0.5"/>
<path d="M37.25 17.4645V17.3609L37.1768 17.2877L31.7123 11.8232L31.6391 11.75H31.5355H14.3224C13.6382 11.75 13.0359 12.0062 12.5256 12.5041C12.0118 13.0053 11.75 13.6158 11.75 14.3224V34.6776C11.75 35.3639 12.0135 35.9668 12.5234 36.4766C13.0332 36.9865 13.6361 37.25 14.3224 37.25H34.6776C35.3842 37.25 35.9947 36.9882 36.4959 36.4744C36.9938 35.9641 37.25 35.3618 37.25 34.6776V17.4645ZM15.8825 21.0164V21.2664H16.1325H28.3593H28.6093V21.0164V16.1325V15.8825H28.3593H16.1325H15.8825V16.1325V21.0164ZM34.4276 18.6268V34.4276H14.5724V18.5232V14.5724H30.3732L34.4276 18.6268ZM24.5 32.7077C25.5456 32.7077 26.4459 32.3339 27.187 31.5928C27.9282 30.8516 28.3019 29.9513 28.3019 28.9057C28.3019 27.8601 27.9282 26.9599 27.187 26.2187C26.4459 25.4776 25.5456 25.1038 24.5 25.1038C23.4557 25.1038 22.5559 25.4709 21.8144 26.2002C21.0707 26.9317 20.6981 27.839 20.6981 28.9057C20.6981 29.9513 21.0718 30.8516 21.813 31.5928C22.5541 32.3339 23.4544 32.7077 24.5 32.7077Z" stroke="url(#paint2_linear_17_291)" stroke-opacity="0.4" stroke-width="0.5"/>
<defs>
<linearGradient id="paint0_linear_17_291" x1="50" y1="50" x2="-10.0409" y2="29.705" gradientUnits="userSpaceOnUse">
<stop/>
<stop offset="1" stop-opacity="0"/>
</linearGradient>
<linearGradient id="paint1_linear_17_291" x1="0.999999" y1="1.5" x2="51.5" y2="45.5" gradientUnits="userSpaceOnUse">
<stop stop-opacity="0"/>
<stop offset="1"/>
</linearGradient>
<linearGradient id="paint2_linear_17_291" x1="48.5" y1="46.5" x2="4" y2="3.5" gradientUnits="userSpaceOnUse">
<stop/>
<stop offset="1" stop-opacity="0"/>
</linearGradient>
</defs>
</svg>
